<svg width="32" height="60" viewBox="0 0 32 60" fill="none" xmlns="http://www.w3.org/2000/svg">
<path d="M28.536 4H22V0H10V4H3.464C1.554 4 0 5.554 0 7.464V56.536C0 58.446 1.554 60 3.464 60H28.536C30.446 60 32 58.446 32 56.536V7.464C32 5.554 30.446 4 28.536 4ZM2 19H30V31H2V19ZM2 33H30V45H2V33ZM12 2H20V4H12V2ZM3.464 6H10H22H28.536C29.344 6 30 6.656 30 7.464V17H2V7.464C2 6.656 2.656 6 3.464 6ZM28.536 58H3.464C2.656 58 2 57.344 2 56.536V47H30V56.536C30 57.344 29.344 58 28.536 58Z" fill="black"/>
</svg>
