<svg width="68" height="68" viewBox="0 0 68 68" fill="none" xmlns="http://www.w3.org/2000/svg">
<path d="M46.536 8H40V4H28V8H21.464C19.554 8 18 9.554 18 11.464V60.536C18 62.446 19.554 64 21.464 64H46.536C48.446 64 50 62.446 50 60.536V11.464C50 9.554 48.446 8 46.536 8ZM20 23H48V35H20V23ZM20 37H48V49H20V37ZM30 6H38V8H30V6ZM21.464 10H28H40H46.536C47.344 10 48 10.656 48 11.464V21H20V11.464C20 10.656 20.656 10 21.464 10ZM46.536 62H21.464C20.656 62 20 61.344 20 60.536V51H48V60.536C48 61.344 47.344 62 46.536 62Z" fill="black"/>
</svg>
