<svg width="32" height="32" viewBox="0 0 32 32" fill="none" xmlns="http://www.w3.org/2000/svg">
<g clip-path="url(#clip0_2_138)">
<path d="M22.2054 21.5212L17.1636 16L22.2054 10.4794C22.3637 10.3056 22.4445 10.0739 22.4276 9.83904C22.4107 9.60391 22.2984 9.38594 22.1163 9.23646L15.9874 4.19594C15.7305 3.98458 15.3753 3.94019 15.0746 4.08255C14.7739 4.2243 14.5823 4.52674 14.5823 4.85927V13.1736L11.0639 9.32046C10.7443 8.97021 10.2004 8.94555 9.85017 9.26548C9.49992 9.5854 9.47526 10.1287 9.79518 10.4792L14.5823 15.7217V16.2784L9.79523 21.5212C9.47503 21.8712 9.49968 22.4148 9.85022 22.7349C10.2007 23.0551 10.7441 23.0305 11.064 22.6797L14.5821 18.827V27.1408C14.5821 27.473 14.774 27.7758 15.0744 27.9178C15.1913 27.9728 15.3167 28.0001 15.4413 28.0001C15.6369 28.0001 15.8305 27.9336 15.9874 27.8047L22.1163 22.7641C22.2984 22.6144 22.4107 22.3964 22.4276 22.1615C22.4445 21.9267 22.3643 21.695 22.2054 21.5212ZM16.3007 6.6784L20.326 9.98857L16.3007 14.3968V6.6784ZM16.3007 25.3217V17.6036L20.326 22.0115L16.3007 25.3217Z" fill="black"/>
</g>
<defs>
<clipPath id="clip0_2_138">
<rect width="24" height="24" fill="white" transform="translate(4 4)"/>
</clipPath>
</defs>
</svg>
