<svg width="32" height="32" viewBox="0 0 32 32" fill="none" xmlns="http://www.w3.org/2000/svg">
<g clip-path="url(#clip0_2_164)">
<path d="M26.08 11.2274V9.1261C26.08 8.73627 25.7639 8.42022 25.3741 8.42022H22.096C21.7062 8.42022 21.3901 8.73627 21.3901 9.1261V11.2274C21.0301 11.2596 20.7478 11.5617 20.7478 11.9301V15.7258C20.7478 16.5907 21.4515 17.2943 22.3164 17.2943H23.0292V24.8141C23.0292 25.7924 22.2331 26.5882 21.2546 26.5882H13.5383C12.5601 26.5882 11.7642 25.7924 11.7642 24.8141V23.2941H13.2654C13.6552 23.2941 13.9713 22.9781 13.9713 22.5882V20.298H14.7211C15.8887 20.298 16.8387 19.348 16.8387 18.1804V11.7782C16.8387 10.8261 16.207 10.0189 15.3407 9.75326V7.33269C15.3407 6.94286 15.0247 6.62681 14.6348 6.62681H13.6471V4.70587C13.6471 4.31603 13.331 3.99998 12.9412 3.99998C12.5513 3.99998 12.2353 4.31603 12.2353 4.70587V6.62681H9.88141V4.70587C9.88141 4.31603 9.56536 3.99998 9.17552 3.99998C8.78569 3.99998 8.46964 4.31603 8.46964 4.70587V6.62681H7.48188C7.09204 6.62681 6.77599 6.94286 6.77599 7.33269V9.75326C5.90969 10.0189 5.27797 10.826 5.27797 11.7782V18.1804C5.27797 19.348 6.22795 20.298 7.39562 20.298H8.1454V22.5882C8.1454 22.9781 8.46145 23.2941 8.85129 23.2941H10.3525V24.8141C10.3525 26.5708 11.7816 28 13.5383 28H21.2546C23.0115 28 24.4409 26.5708 24.4409 24.8141V17.2943H25.1535C26.0184 17.2943 26.7221 16.5907 26.7221 15.7258V11.9301C26.7221 11.5618 26.4399 11.2597 26.08 11.2274ZM13.9289 8.03857V9.66055H8.18776V8.03857H13.9289ZM6.68969 18.1804V11.7782C6.68969 11.389 7.00635 11.0723 7.39557 11.0723H14.7211C15.1103 11.0723 15.427 11.389 15.427 11.7782V18.1804C15.427 18.5696 15.1103 18.8862 14.7211 18.8862C14.4253 18.8862 7.73246 18.8862 7.39557 18.8862C7.00635 18.8862 6.68969 18.5696 6.68969 18.1804ZM9.55717 20.298H12.5595V21.8823H9.55717V20.298ZM24.6682 9.83198V11.2242H22.8019V9.83198H24.6682ZM25.3103 15.7258C25.3103 15.8122 25.2399 15.8825 25.1535 15.8825C25.0671 15.8825 23.1153 15.8825 22.3164 15.8825C22.2299 15.8825 22.1596 15.8122 22.1596 15.7258V12.636H25.3103V15.7258Z" fill="black"/>
<path d="M10.1638 15.6852H10.8799L10.5678 16.409C10.4134 16.767 10.5785 17.1823 10.9364 17.3367C11.295 17.4911 11.7099 17.3256 11.8641 16.968L12.6011 15.2588C12.802 14.7928 12.4593 14.2735 11.9529 14.2735H11.2368L11.5489 13.5497C11.7033 13.1917 11.5382 12.7763 11.1802 12.622C10.8222 12.4677 10.4069 12.6328 10.2526 12.9907L9.51558 14.6998C9.31464 15.1657 9.65741 15.6852 10.1638 15.6852Z" fill="black"/>
</g>
<defs>
<clipPath id="clip0_2_164">
<rect width="24" height="24" fill="white" transform="translate(4 4)"/>
</clipPath>
</defs>
</svg>
