<svg width="32" height="32" viewBox="0 0 32 32" fill="none" xmlns="http://www.w3.org/2000/svg">
<g clip-path="url(#clip0_2_90)">
<path d="M24.3373 10.3997H18.9742C19.5392 9.7226 19.88 8.85193 19.88 7.90308C19.88 5.75085 18.1292 4 15.9771 4C13.8249 4 12.074 5.75085 12.074 7.90308C12.074 8.85193 12.4148 9.7226 12.9799 10.3997H7.6167L4.28125 28H27.6728L24.3373 10.3997ZM15.9771 5.40625C17.3537 5.40625 18.4738 6.52631 18.4738 7.90308C18.4738 9.27966 17.3537 10.3997 15.9771 10.3997C14.6003 10.3997 13.4803 9.27966 13.4803 7.90308C13.4803 6.52631 14.6003 5.40625 15.9771 5.40625ZM8.78143 11.806H23.1726L25.975 26.5938H5.979L8.78143 11.806Z" fill="black"/>
<path d="M16.0055 16.4026H14.4094L12.1779 18.631V16.4026H11.0309V22.0225H12.1779V20.1017L12.7563 19.5378L14.5044 22.0225H15.985L13.5753 18.7497L16.0055 16.4026Z" fill="black"/>
<path d="M18.2747 20.0007H19.7903V20.617C19.6685 20.7058 19.5026 20.793 19.2955 20.8766C19.0436 20.9786 18.7817 21.0303 18.5177 21.0303C18.2154 21.0303 17.9261 20.9627 17.6575 20.8294C17.3986 20.701 17.2063 20.5092 17.0701 20.2426C16.9294 19.9677 16.8582 19.6152 16.8582 19.195C16.8582 18.8546 16.9186 18.5355 17.0371 18.2474C17.1041 18.0872 17.1995 17.938 17.3207 17.8034C17.4363 17.6752 17.5936 17.569 17.7878 17.4879C17.9858 17.4053 18.2277 17.3634 18.5071 17.3634C18.7347 17.3634 18.9432 17.4028 19.1269 17.4804C19.3016 17.5542 19.4356 17.6511 19.5251 17.7681C19.6222 17.8948 19.7062 18.0775 19.7751 18.3113L19.8395 18.5302L20.8955 18.2405L20.8386 18.0191C20.7417 17.6419 20.5959 17.329 20.4052 17.0886C20.2094 16.8419 19.939 16.6482 19.601 16.5127C19.2736 16.3814 18.9044 16.3149 18.5036 16.3149C17.9539 16.3149 17.4592 16.4307 17.0331 16.6588C16.5969 16.8925 16.2585 17.2534 16.028 17.7314C15.8037 18.1962 15.6902 18.7026 15.6902 19.2373C15.6902 19.7786 15.8052 20.277 16.0324 20.7184C16.2648 21.1703 16.6132 21.5203 17.0684 21.7587C17.5139 21.9921 18.0145 22.1106 18.5563 22.1106C18.9579 22.1106 19.3547 22.0375 19.7357 21.8932C20.1131 21.7506 20.4832 21.5356 20.8356 21.2546L20.9233 21.1848V18.9271L18.2747 18.9313V20.0007Z" fill="black"/>
</g>
<defs>
<clipPath id="clip0_2_90">
<rect width="24" height="24" fill="white" transform="translate(4 4)"/>
</clipPath>
</defs>
</svg>
