<svg width="68" height="68" viewBox="0 0 68 68" fill="none" xmlns="http://www.w3.org/2000/svg">
<path d="M35.634 41.989C36.675 41.908 37.624 41.377 38.24 40.53L47.603 27.586C47.89 27.189 47.847 26.641 47.499 26.293C47.151 25.946 46.603 25.903 46.206 26.189L33.26 35.555C32.416 36.169 31.885 37.118 31.804 38.159C31.723 39.2 32.1 40.219 32.837 40.956C33.508 41.628 34.413 42 35.354 42C35.447 42 35.54 41.996 35.634 41.989ZM33.798 38.315C33.833 37.858 34.067 37.441 34.435 37.173L42.332 31.46L36.621 39.355C36.351 39.726 35.934 39.959 35.477 39.995C35.022 40.025 34.575 39.867 34.25 39.542C33.928 39.219 33.762 38.771 33.798 38.315Z" fill="black"/>
<path d="M58.034 23.564C58.024 23.543 58.024 23.521 58.013 23.5C58.001 23.48 57.982 23.469 57.969 23.45C56.958 21.716 55.762 20.103 54.404 18.641L56.552 16.494L57.966 17.908L62.208 13.665L57.966 9.423L53.723 13.665L55.138 15.08L52.99 17.227C51.528 15.869 49.916 14.672 48.181 13.661C48.162 13.648 48.151 13.629 48.131 13.617C48.11 13.605 48.088 13.606 48.067 13.595C44.974 11.813 41.499 10.626 37.794 10.191V9H39.294C40.673 9 41.794 7.879 41.794 6.5C41.794 5.121 40.672 4 39.293 4H30.293C28.914 4 27.793 5.121 27.793 6.5C27.793 7.879 28.914 9 30.293 9H31.793V10.156C30.713 10.271 29.635 10.447 28.569 10.691C28.031 10.814 27.694 11.351 27.818 11.889C27.941 12.427 28.478 12.765 29.016 12.64C29.936 12.429 30.865 12.27 31.796 12.163L32.869 12.08C33.197 12.055 33.499 12.037 33.793 12.023V14C33.793 14.553 34.24 15 34.793 15C35.346 15 35.793 14.553 35.793 14V12.03C39.554 12.203 43.098 13.213 46.249 14.875L45.263 16.582C44.987 17.061 45.151 17.672 45.629 17.948C45.786 18.039 45.958 18.082 46.128 18.082C46.474 18.082 46.81 17.903 46.995 17.582L47.978 15.879C51.107 17.864 53.765 20.522 55.75 23.651L54.047 24.634C53.57 24.91 53.406 25.521 53.683 26C53.869 26.321 54.204 26.5 54.55 26.5C54.72 26.5 54.892 26.457 55.049 26.366L56.756 25.38C58.441 28.576 59.454 32.178 59.605 35.999H57.63C57.077 35.999 56.63 36.446 56.63 36.999C56.63 37.552 57.077 37.999 57.63 37.999H59.605C59.454 41.82 58.441 45.422 56.756 48.618L55.049 47.632C54.571 47.356 53.959 47.518 53.683 47.998C53.407 48.477 53.571 49.088 54.049 49.364L55.752 50.347C53.767 53.476 51.109 56.134 47.98 58.119L46.997 56.416C46.72 55.936 46.107 55.773 45.631 56.05C45.152 56.326 44.988 56.938 45.265 57.416L46.251 59.123C43.1 60.785 39.556 61.795 35.795 61.968V60C35.795 59.447 35.348 59 34.795 59C34.242 59 33.795 59.447 33.795 60V61.976C32.198 61.921 30.596 61.721 29.019 61.359C28.481 61.23 27.944 61.572 27.821 62.11C27.697 62.648 28.034 63.185 28.572 63.308C30.568 63.768 32.607 64 34.63 64C34.679 64 34.726 63.997 34.775 63.996C34.782 63.996 34.787 64 34.793 64C34.801 64 34.808 63.995 34.816 63.995C39.623 63.962 44.133 62.664 48.035 60.422C48.066 60.408 48.099 60.401 48.129 60.383C48.149 60.371 48.16 60.352 48.179 60.339C52.218 57.985 55.593 54.614 57.952 50.578C57.971 50.551 57.995 50.53 58.012 50.5C58.024 50.479 58.023 50.457 58.033 50.436C60.317 46.476 61.63 41.89 61.63 37C61.63 32.11 60.317 27.524 58.034 23.564ZM57.965 12.251L59.379 13.665L57.965 15.08L56.55 13.665L57.965 12.251ZM33.793 10.021V7H30.293C30.018 7 29.793 6.775 29.793 6.5C29.793 6.225 30.018 6 30.293 6H39.293C39.568 6 39.793 6.225 39.793 6.5C39.793 6.775 39.568 7 39.293 7H35.793V10.021C35.445 10.007 35.113 10 34.793 10C34.765 10 34.733 10.002 34.705 10.002C34.68 10.002 34.655 10 34.63 10C34.466 10 34.302 10.011 34.138 10.014C34.022 10.017 33.913 10.016 33.793 10.021Z" fill="black"/>
<path d="M25.793 18H20.793C20.24 18 19.793 18.447 19.793 19C19.793 19.553 20.24 20 20.793 20H25.793C26.346 20 26.793 19.553 26.793 19C26.793 18.447 26.346 18 25.793 18Z" fill="black"/>
<path d="M25.793 25H15.793C15.24 25 14.793 25.447 14.793 26C14.793 26.553 15.24 27 15.793 27H25.793C26.346 27 26.793 26.553 26.793 26C26.793 25.447 26.346 25 25.793 25Z" fill="black"/>
<path d="M25.793 32H10.793C10.24 32 9.793 32.447 9.793 33C9.793 33.553 10.24 34 10.793 34H25.793C26.346 34 26.793 33.553 26.793 33C26.793 32.447 26.346 32 25.793 32Z" fill="black"/>
<path d="M25.793 39H6.793C6.24 39 5.793 39.447 5.793 40C5.793 40.553 6.24 41 6.793 41H25.793C26.346 41 26.793 40.553 26.793 40C26.793 39.447 26.346 39 25.793 39Z" fill="black"/>
<path d="M25.793 46H12.793C12.24 46 11.793 46.447 11.793 47C11.793 47.553 12.24 48 12.793 48H25.793C26.346 48 26.793 47.553 26.793 47C26.793 46.447 26.346 46 25.793 46Z" fill="black"/>
<path d="M25.793 53H18.793C18.24 53 17.793 53.447 17.793 54C17.793 54.553 18.24 55 18.793 55H25.793C26.346 55 26.793 54.553 26.793 54C26.793 53.447 26.346 53 25.793 53Z" fill="black"/>
</svg>
